<?xml version="1.0" encoding="utf-8"?>
<!-- Generator: Adobe Illustrator 21.1.0, SVG Export Plug-In . SVG Version: 6.00 Build 0)  -->
<svg version="1.1" id="Layer_1" xmlns="http://www.w3.org/2000/svg" xmlns:xlink="http://www.w3.org/1999/xlink" x="0px" y="0px"
	 viewBox="0 0 187.6 175.4" style="enable-background:new 0 0 187.6 175.4;" xml:space="preserve">
<style type="text/css">
	
		.st0{fill-rule:evenodd;clip-rule:evenodd;fill:none;stroke:#009CD5;stroke-width:17.4422;stroke-linecap:round;stroke-linejoin:round;stroke-miterlimit:10;}
	.st1{fill:none;stroke:#009CD5;stroke-width:17.4422;stroke-linecap:round;stroke-linejoin:round;stroke-miterlimit:10;}
	.st2{fill:url(#XMLID_2_);}
	.st3{fill:#00B0DE;}
	.st4{fill:#044F87;}
	.st5{fill:url(#XMLID_3_);}
	.st6{fill:url(#XMLID_4_);}
</style>
<g id="XMLID_2391_">
	<path id="XMLID_2417_" class="st0" d="M8.7,120.7c27.3-25.9,47.2,0.2,71.8-30.3"/>
	<path id="XMLID_2416_" class="st0" d="M110.5,85.8c20.2,27.1,54.4,23.3,68.4-15.7"/>
	<path id="XMLID_2415_" class="st1" d="M33.3,143.2c70.2,22.5,102.6-12.4,57.8-57.5"/>
	
		<linearGradient id="XMLID_2_" gradientUnits="userSpaceOnUse" x1="-642.3057" y1="37.8699" x2="-564.2767" y2="1.4844" gradientTransform="matrix(-0.9995 -3.031286e-02 -3.031286e-02 0.9995 -508.6839 11.9557)">
		<stop  offset="0.1629" style="stop-color:#009CD5"/>
		<stop  offset="0.5088" style="stop-color:#009DD5"/>
		<stop  offset="0.6334" style="stop-color:#009FD6"/>
		<stop  offset="0.7222" style="stop-color:#00A3D8"/>
		<stop  offset="0.7941" style="stop-color:#00A8DA"/>
		<stop  offset="0.8556" style="stop-color:#00B0DE"/>
		<stop  offset="0.9101" style="stop-color:#45BAE2"/>
		<stop  offset="0.9581" style="stop-color:#71C7E7"/>
		<stop  offset="1" style="stop-color:#97D9EF"/>
	</linearGradient>
	<path id="XMLID_2414_" class="st2" d="M115.8,100.4c1.7-4.1,3.3-7.7,5.5-11.5c6.9-11.7,21.6-34.5,17.8-58
		C135.7,9.9,117.7,0.6,99.2,0c-17.7-0.5-36.8,5-40.9,28.4c-4,22.8,6.5,44.2,9.2,49.9c2.6,5.7,6,12.1,8.5,20.8L115.8,100.4z"/>
	<g id="XMLID_2399_">
		
			<ellipse id="XMLID_2402_" transform="matrix(3.031286e-02 -0.9995 0.9995 3.031286e-02 100.1184 155.349)" class="st3" cx="130.1" cy="26.1" rx="3.7" ry="3.7"/>
		
			<ellipse id="XMLID_2401_" transform="matrix(3.031286e-02 -0.9995 0.9995 3.031286e-02 104.5069 145.7513)" class="st3" cx="127.4" cy="19" rx="2.3" ry="2.3"/>
		
			<ellipse id="XMLID_2400_" transform="matrix(3.031286e-02 -0.9995 0.9995 3.031286e-02 97.6088 145.8024)" class="st3" cx="123.9" cy="22.6" rx="1.2" ry="1.2"/>
	</g>
	<path id="XMLID_2398_" class="st4" d="M110.1,55.2c0.3-3.9,2-5.8,3.8-5.7c1.9,0.1,3.2,2.3,2.9,6.2c0,0.5,0.4,0.7,0.7,0.2
		c0.5-0.9,0.9-2,1-3.2c0.3-3.5-1.6-6.5-4.2-6.7c-2.6-0.2-4.9,2.5-5.2,5.9c-0.1,1.2,0.1,2.4,0.4,3.4C109.6,55.8,110,55.7,110.1,55.2z
		"/>
	<path id="XMLID_2397_" class="st4" d="M78.2,54.5c0-3.9,1.5-6,3.4-6c1.9,0,3.4,2,3.4,6c0,0.5,0.5,0.6,0.7,0.2
		c0.4-1,0.7-2.1,0.7-3.3c0-3.5-2.1-6.3-4.7-6.3c-2.6,0-4.7,2.9-4.7,6.4c0,1.2,0.3,2.4,0.7,3.3C77.7,55.2,78.2,55,78.2,54.5z"/>
	<linearGradient id="XMLID_3_" gradientUnits="userSpaceOnUse" x1="56.9713" y1="136.2365" x2="87.2483" y2="167.4948">
		<stop  offset="0" style="stop-color:#97D9EF;stop-opacity:0.6"/>
		<stop  offset="3.687800e-02" style="stop-color:#87D0EB;stop-opacity:0.6195"/>
		<stop  offset="0.1505" style="stop-color:#53BEE3;stop-opacity:0.6797"/>
		<stop  offset="0.2666" style="stop-color:#00B0DE;stop-opacity:0.7413"/>
		<stop  offset="0.3839" style="stop-color:#00A7DA;stop-opacity:0.8035"/>
		<stop  offset="0.5032" style="stop-color:#00A1D7;stop-opacity:0.8666"/>
		<stop  offset="0.6253" style="stop-color:#009ED6;stop-opacity:0.9313"/>
		<stop  offset="0.7548" style="stop-color:#009CD5"/>
	</linearGradient>
	<path id="XMLID_2396_" class="st5" d="M93.1,148c-0.8-4.8-5.3-8-10-7.2c-4.8,0.8-10.4,0.9-16.4,0.5l-17,15.2
		c8.3,1.6,16.1,2.5,23.2,2.5c4.6,0,8.9-0.3,12.9-1C90.6,157.2,93.9,152.7,93.1,148z"/>
	<path id="XMLID_2395_" class="st1" d="M94.6,84.6c-6,54.5-47.1,59.5-63.3,82.1"/>
	<g id="XMLID_2393_">
		<linearGradient id="XMLID_4_" gradientUnits="userSpaceOnUse" x1="41.0891" y1="142.2896" x2="59.4624" y2="158.833">
			<stop  offset="0" style="stop-color:#97D9EF"/>
			<stop  offset="2.691722e-02" style="stop-color:#7FCDE9"/>
			<stop  offset="7.674763e-02" style="stop-color:#53BEE3"/>
			<stop  offset="0.1317" style="stop-color:#02B2DF"/>
			<stop  offset="0.1921" style="stop-color:#00A9DB"/>
			<stop  offset="0.2601" style="stop-color:#00A3D8"/>
			<stop  offset="0.3401" style="stop-color:#009FD7"/>
			<stop  offset="0.4433" style="stop-color:#009DD6"/>
			<stop  offset="0.6535" style="stop-color:#009CD5"/>
		</linearGradient>
		<path id="XMLID_2394_" class="st6" d="M69.5,122.9c-6.6,7.3-14.3,12.8-22,18.1c-8.9,6.2-17.3,12.1-23.4,20.5
			c-2.8,3.9-1.9,9.4,2,12.2c1.5,1.1,3.3,1.6,5.1,1.6c2.7,0,5.4-1.3,7.1-3.6c4.3-6,11.2-10.8,19.2-16.4c5.1-3.6,10.7-8,15.8-11.8
			C70.6,136.7,62.9,135.4,69.5,122.9z"/>
	</g>
	<path id="XMLID_2392_" class="st4" d="M87.4,66.2c1.4-0.3,4.5,1,8.9,0.5c5.1-0.6,9.6-3,10.8-3.2c1-0.2,1.6,0.6,1.5,1.4
		c-0.6,4.4-3.7,10.6-10.1,11.8c-6.4,1.1-11.7-2.5-12.2-9C86.3,67,86.6,66.3,87.4,66.2z"/>
</g>
</svg>
